<svg width="12" height="16" viewBox="0 0 12 16" fill="none" xmlns="http://www.w3.org/2000/svg">
<path d="M5.93646 2.54258L2.84289 5.98734C1.98176 6.94623 1.55119 7.42569 1.51122 7.87328C1.47638 8.26334 1.61265 8.64931 1.88465 8.93104C2.19678 9.25433 2.83292 9.35718 4.10521 9.56288L4.63762 9.64896C4.8178 9.67809 4.90788 9.69266 4.96829 9.73945C5.02136 9.78057 5.05911 9.83829 5.07549 9.90338C5.09414 9.97749 5.07137 10.0659 5.02582 10.2426L4.42552 12.572C4.13839 13.6861 3.99482 14.2432 4.12638 14.4595C4.23974 14.6459 4.44531 14.7561 4.66328 14.7473C4.91626 14.737 5.30064 14.309 6.0694 13.453L9.16297 10.0082C10.0241 9.04932 10.4547 8.56987 10.4946 8.12227C10.5295 7.73221 10.3932 7.34625 10.1212 7.06451C9.80908 6.74122 9.17294 6.63837 7.90065 6.43267L7.36824 6.34659C7.18806 6.31746 7.09797 6.3029 7.03757 6.2561C6.9845 6.21499 6.94675 6.15727 6.93037 6.09217C6.91171 6.01807 6.93449 5.9297 6.98003 5.75296L7.58034 3.42359C7.86747 2.30944 8.01103 1.75236 7.87947 1.53604C7.76612 1.34965 7.56054 1.23948 7.34258 1.2483C7.0896 1.25853 6.70522 1.68655 5.93646 2.54258Z" fill="white"/>
</svg>
